<svg width="84" height="103" viewBox="0 0 84 103" fill="none" xmlns="http://www.w3.org/2000/svg">
<path d="M43.1213 18.58H52.6597C52.6597 18.58 86.4539 -18.725 81.2094 18.58C81.2094 18.58 78.5872 29.96 72.7636 37.1035C72.7636 37.1035 87.0439 70.44 68.3932 86.0466C68.3932 86.0466 58.6253 96.7122 42.8263 100.75H40.3242C24.6562 96.7023 15.3691 86.0466 15.3691 86.0466C-3.28164 70.44 10.9987 37.1035 10.9987 37.1035C5.17512 29.96 2.55287 18.58 2.55287 18.58C-2.69163 -18.725 31.1026 18.58 31.1026 18.58H43.1213Z" stroke="black" stroke-width="3" stroke-linecap="round" stroke-linejoin="round"/>
<path d="M10.7037 17.191C10.7037 17.191 8.00497 6.67417 18.2099 17.8558C18.2099 17.8558 23.5309 23.015 19.226 27.2515C19.226 27.2515 13.621 35.3177 11.5778 22.2907" stroke="black" stroke-width="3" stroke-linecap="round" stroke-linejoin="round"/>
<path d="M72.7636 17.191C72.7636 17.191 75.4623 6.67417 65.2574 17.8558C65.2574 17.8558 59.9364 23.015 64.2413 27.2515C64.2413 27.2515 69.8463 35.3177 71.8895 22.2907" stroke="black" stroke-width="3" stroke-linecap="round" stroke-linejoin="round"/>
<path d="M41.8866 18.58V24.8008" stroke="black" stroke-width="3" stroke-linecap="round" stroke-linejoin="round"/>
<path d="M25.3446 29.712C25.3446 29.712 30.5126 28.829 34.741 33.3234" stroke="black" stroke-width="3" stroke-linecap="round" stroke-linejoin="round"/>
<path d="M27.6063 40.8737C29.0545 40.8737 30.2285 39.8076 30.2285 38.4925C30.2285 37.1774 29.0545 36.1113 27.6063 36.1113C26.158 36.1113 24.984 37.1774 24.984 38.4925C24.984 39.8076 26.158 40.8737 27.6063 40.8737Z" fill="black" stroke="black" stroke-width="3" stroke-linecap="round" stroke-linejoin="round"/>
<path d="M58.4177 29.712C58.4177 29.712 53.2497 28.829 49.0213 33.3234" stroke="black" stroke-width="3" stroke-linecap="round" stroke-linejoin="round"/>
<path d="M56.156 40.8737C57.6042 40.8737 58.7783 39.8076 58.7783 38.4925C58.7783 37.1774 57.6042 36.1113 56.156 36.1113C54.7078 36.1113 53.5338 37.1774 53.5338 38.4925C53.5338 39.8076 54.7078 40.8737 56.156 40.8737Z" fill="black" stroke="black" stroke-width="3" stroke-linecap="round" stroke-linejoin="round"/>
<path d="M42.6842 56.7978C42.6842 56.7978 53.3371 49.8924 42.6842 50.1901H41.3731C30.7202 49.8924 41.3731 56.7978 41.3731 56.7978H42.6842Z" fill="black" stroke="black" stroke-width="3" stroke-linecap="round" stroke-linejoin="round"/>
<path d="M59.7289 54.7639C59.7289 54.7639 54.4079 68.922 42.3237 57.0756H42.0287C29.9335 68.912 24.6235 54.7639 24.6235 54.7639" stroke="black" stroke-width="3" stroke-linecap="round" stroke-linejoin="round"/>
<path d="M15.2271 52.0454C15.2271 52.0454 16.6147 61.6395 24.0444 65.7371" stroke="black" stroke-width="3" stroke-linecap="round" stroke-linejoin="round"/>
<path d="M29.1359 67.8603C29.1359 67.8603 47.9287 73.2973 62.209 63.4353" stroke="black" stroke-width="3" stroke-linecap="round" stroke-linejoin="round"/>
<path d="M68.6882 51.7477C68.6882 51.7477 68.8303 56.3811 65.3339 58.8913" stroke="black" stroke-width="3" stroke-linecap="round" stroke-linejoin="round"/>
<path d="M41.7337 57.0756C41.7337 57.0756 44.2139 61.5304 49.1634 62.1058C49.1634 62.1058 52.9547 82.3458 41.7337 81.7505H42.0287C30.8076 82.3458 34.5989 62.1058 34.5989 62.1058C39.5484 61.5304 42.0287 57.0756 42.0287 57.0756H41.7337Z" fill="white" stroke="black" stroke-width="3" stroke-linecap="round" stroke-linejoin="round"/>
<path d="M41.7337 57.0756V66.8682" stroke="black" stroke-width="3" stroke-linecap="round" stroke-linejoin="round"/>
</svg>
