<?xml version="1.0" encoding="UTF-8"?>
<svg id="Layer_2" data-name="Layer 2" xmlns="http://www.w3.org/2000/svg" viewBox="0 0 600 620">
  <defs>
    <style>
      .cls-1 {
        fill: #fff;
      }

      .cls-1, .cls-2, .cls-3 {
        stroke: #000;
        stroke-linecap: round;
        stroke-linejoin: round;
        stroke-width: 3px;
      }

      .cls-3 {
        fill: none;
      }
    </style>
  </defs>
  <path class="cls-3" d="M91.42,41.93h8.73s30.93-37.6,26.13,0c0,0-2.4,11.47-7.73,18.67,0,0,13.07,33.6-4,49.33,0,0-8.94,10.75-23.4,14.82h-2.29c-14.34-4.08-22.84-14.82-22.84-14.82-17.07-15.73-4-49.33-4-49.33-5.33-7.2-7.73-18.67-7.73-18.67-4.8-37.6,26.13,0,26.13,0h11Z"/>
  <path class="cls-3" d="M61.75,40.53s-2.47-10.6,6.87,.67c0,0,4.87,5.2,.93,9.47,0,0-5.13,8.13-7-5"/>
  <path class="cls-3" d="M118.55,40.53s2.47-10.6-6.87,.67c0,0-4.87,5.2-.93,9.47,0,0,5.13,8.13,7-5"/>
  <line class="cls-3" x1="90.29" y1="41.93" x2="90.29" y2="48.2"/>
  <path class="cls-3" d="M75.15,53.15s4.73-.89,8.6,3.64"/>
  <circle class="cls-2" cx="77.22" cy="62" r="2.4"/>
  <path class="cls-3" d="M105.42,53.15s-4.73-.89-8.6,3.64"/>
  <circle class="cls-2" cx="103.35" cy="62" r="2.4"/>
  <path class="cls-2" d="M91.02,80.45s9.75-6.96,0-6.66h-1.2c-9.75-.3,0,6.66,0,6.66h1.2Z"/>
  <path class="cls-3" d="M106.62,78.4s-4.87,14.27-15.93,2.33h-.27c-11.07,11.93-15.93-2.33-15.93-2.33"/>
  <path class="cls-3" d="M65.89,75.66s1.27,9.67,8.07,13.8"/>
  <path class="cls-3" d="M78.62,91.6s17.2,5.48,30.27-4.46"/>
  <path class="cls-3" d="M114.82,75.36s.13,4.67-3.07,7.2"/>
  <path class="cls-1" d="M90.15,80.73s2.27,4.49,6.8,5.07c0,0,3.47,20.4-6.8,19.8h.27c-10.27,.6-6.8-19.8-6.8-19.8,4.53-.58,6.8-5.07,6.8-5.07h-.27Z"/>
  <line class="cls-1" x1="90.15" y1="80.73" x2="90.15" y2="90.6"/>
  <path class="cls-3" d="M291.66,43.29h8.73s30.93-37.6,26.13,0c0,0-2.4,11.47-7.73,18.67,0,0,13.07,33.6-4,49.33,0,0-8.94,10.75-23.4,14.82h-2.29c-14.34-4.08-22.84-14.82-22.84-14.82-17.07-15.73-4-49.33-4-49.33-5.33-7.2-7.73-18.67-7.73-18.67-4.8-37.6,26.13,0,26.13,0h11Z"/>
  <path class="cls-3" d="M261.99,41.89s-2.47-10.6,6.87,.67c0,0,4.87,5.2,.93,9.47,0,0-5.13,8.13-7-5"/>
  <path class="cls-3" d="M318.79,41.89s2.47-10.6-6.87,.67c0,0-4.87,5.2-.93,9.47,0,0,5.13,8.13,7-5"/>
  <line class="cls-3" x1="290.53" y1="43.29" x2="290.53" y2="49.55"/>
  <path class="cls-3" d="M275.39,54.51s4.73-.89,8.6,3.64"/>
  <circle class="cls-2" cx="277.46" cy="63.35" r="2.4"/>
  <path class="cls-3" d="M305.66,54.51s-4.73-.89-8.6,3.64"/>
  <circle class="cls-2" cx="303.59" cy="63.35" r="2.4"/>
  <path class="cls-2" d="M291.26,81.8s9.75-6.96,0-6.66h-1.2c-9.75-.3,0,6.66,0,6.66h1.2Z"/>
  <path class="cls-3" d="M306.86,79.75s-4.87,14.27-15.93,2.33h-.27c-11.07,11.93-15.93-2.33-15.93-2.33"/>
  <path class="cls-3" d="M266.13,77.02s1.27,9.67,8.07,13.8"/>
  <path class="cls-3" d="M278.86,92.95s17.2,5.48,30.27-4.46"/>
  <path class="cls-3" d="M315.06,76.72s.13,4.67-3.07,7.2"/>
  <path class="cls-1" d="M290.39,82.09s2.27,4.49,6.8,5.07c0,0,3.47,20.4-6.8,19.8h.27c-10.27,.6-6.8-19.8-6.8-19.8,4.53-.58,6.8-5.07,6.8-5.07h-.27Z"/>
  <line class="cls-1" x1="290.39" y1="82.09" x2="290.39" y2="91.95"/>
  <path class="cls-3" d="M191.63,42.8h8.73s30.93-37.6,26.13,0c0,0-2.4,11.47-7.73,18.67,0,0,13.07,33.6-4,49.33,0,0-8.94,10.75-23.4,14.82h-2.29c-14.34-4.08-22.84-14.82-22.84-14.82-17.07-15.73-4-49.33-4-49.33-5.33-7.2-7.73-18.67-7.73-18.67-4.8-37.6,26.13,0,26.13,0h11Z"/>
  <path class="cls-3" d="M161.96,41.4s-2.47-10.6,6.87,.67c0,0,4.87,5.2,.93,9.47,0,0-5.13,8.13-7-5"/>
  <path class="cls-3" d="M218.76,41.4s2.47-10.6-6.87,.67c0,0-4.87,5.2-.93,9.47,0,0,5.13,8.13,7-5"/>
  <line class="cls-3" x1="190.49" y1="42.8" x2="190.49" y2="49.07"/>
  <path class="cls-3" d="M175.36,54.02s4.73-.89,8.6,3.64"/>
  <path class="cls-3" d="M205.63,54.02s-4.73-.89-8.6,3.64"/>
  <path class="cls-2" d="M191.23,81.32s9.75-6.96,0-6.66h-1.2c-9.75-.3,0,6.66,0,6.66h1.2Z"/>
  <path class="cls-3" d="M206.83,79.27s-4.87,14.27-15.93,2.33h-.27c-11.07,11.93-15.93-2.33-15.93-2.33"/>
  <path class="cls-3" d="M166.09,76.53s1.27,9.67,8.07,13.8"/>
  <path class="cls-3" d="M178.83,92.47s17.2,5.48,30.27-4.46"/>
  <path class="cls-3" d="M215.03,76.23s.13,4.67-3.07,7.2"/>
  <path class="cls-1" d="M190.36,81.6s2.27,4.49,6.8,5.07c0,0,3.47,20.4-6.8,19.8h.27c-10.27,.6-6.8-19.8-6.8-19.8,4.53-.58,6.8-5.07,6.8-5.07h-.27Z"/>
  <line class="cls-1" x1="190.36" y1="81.6" x2="190.36" y2="91.47"/>
  <polyline class="cls-3" points="173.92 60.1 181.67 64.59 173.57 67.35"/>
  <polyline class="cls-3" points="206.01 60.1 198.27 64.59 206.37 67.35"/>
</svg>